<?xml version="1.0" encoding="UTF-8"?>
<svg width="20px" height="20px" viewBox="0 0 20 20" version="1.1" xmlns="http://www.w3.org/2000/svg" xmlns:xlink="http://www.w3.org/1999/xlink">
    <title>Artboard</title>
    <g id="Widgets" stroke="none" stroke-width="1" fill="none" fill-rule="evenodd">
        <g id="Artboard" transform="translate(-735.000000, -195.000000)" fill="#FFFFFF" fill-rule="nonzero">
            <g id="Group-4" transform="translate(735.000000, 195.000000)">
                <path d="M18,10 C18,14.416 14.416,18 10,18 C5.584,18 2,14.416 2,10 C2,5.584 5.584,2 10,2 C14.416,2 18,5.584 18,10 Z M16.5454545,10 C16.5454545,6.38732327 13.6126767,3.45454545 10,3.45454545 C6.38732327,3.45454545 3.45454545,6.38732327 3.45454545,10 C3.45454545,13.6126767 6.38732327,16.5454545 10,16.5454545 C13.6126767,16.5454545 16.5454545,13.6126767 16.5454545,10 Z M8,6.66666667 L8,13.3333333 L13.3333333,10 L8,6.66666667 Z" id="Start"></path>
            </g>
        </g>
    </g>
</svg>