<svg width="121" height="121" viewBox="0 0 121 121" fill="none" xmlns="http://www.w3.org/2000/svg">
<path d="M60.5 121C93.9132 121 121 93.9132 121 60.5C121 27.0868 93.9132 0 60.5 0C27.0868 0 0 27.0868 0 60.5C0 93.9132 27.0868 121 60.5 121Z" fill="#00D1CA"/>
<path d="M39.4565 60.5C39.4565 48.9795 48.9762 39.4565 60.9477 39.4565C67.7916 39.4565 73.8592 42.5787 77.7923 47.4303C80.1448 50.3322 84.4043 50.7775 87.3062 48.425C90.208 46.0725 90.6534 41.813 88.3009 38.9112C81.8798 30.9906 71.9967 25.9286 60.9477 25.9286C41.7094 25.9286 25.9286 41.3053 25.9286 60.5C25.9286 79.6947 41.7094 95.0714 60.9477 95.0714C71.9967 95.0714 81.8798 90.0094 88.3009 82.0889C90.6534 79.187 90.208 74.9275 87.3062 72.575C84.4043 70.2225 80.1448 70.6679 77.7923 73.5697C73.8592 78.4213 67.7916 81.5435 60.9477 81.5435C48.9762 81.5435 39.4565 72.0206 39.4565 60.5Z" fill="#1A263E"/>
<path d="M88.3075 67.264C92.0431 67.264 95.0714 64.2357 95.0714 60.5C95.0714 56.7644 92.0431 53.736 88.3075 53.736C84.5718 53.736 81.5435 56.7644 81.5435 60.5C81.5435 64.2357 84.5718 67.264 88.3075 67.264Z" fill="#1A263E"/>
</svg>
