<?xml version="1.0" encoding="UTF-8"?>
<svg xmlns="http://www.w3.org/2000/svg" width="42" height="38" viewBox="0 0 42 38">
  <path fill="#FFF" fill-rule="nonzero" d="M28.552093 0c2.02284 0 3.89622 1.036484 4.971667 2.733546l.130228.215546 7.558375 13.106186c1.006591 1.749305 1.048333 3.886771.123995 5.671221l-.126044.230692-7.554938 13.0957c-1.012225 1.759099-2.85357 2.867633-4.852628 2.943167l-.250655.004033H13.443404c-2.022869 0-3.896236-1.03671-4.971847-2.734076l-.13025-.215585L.787648 21.949114C-.218918 20.199851-.260706 18.062387.66323 16.278627l.12599-.230598L8.339735 2.952171C9.348318 1.199403 11.184362.091229 13.191649.005379L13.443404 0h15.108689zm0 3H13.443404c-.965995 0-1.867768.485322-2.401645 1.284452l-.10178.163959-7.551791 13.098073c-.483032.839438-.515234 1.860686-.096848 2.723947l.096552.182443 7.552383 13.099102c.483871.840896 1.352188 1.377829 2.31038 1.441661l.192749.006452h15.108689c.965927.00532 1.866234-.478225 2.40104-1.279085l.101999-.164352 7.556601-13.098587c.483117-.839584.515324-1.860843.096938-2.724104l-.096551-.182443L31.055184 4.44783c-.483831-.840827-1.352142-1.37761-2.31034-1.441424L28.552093 3zm.789608 10.070225c.660402.854381.516779 2.128925-.409774 2.699889s-2.117508.400133-2.764066-.436337c-1.651143-2.136132-4.460833-3.010165-7.020067-2.170157-2.557528.839448-4.2491 3.20198-4.192867 5.858103.056293 2.658916 1.732373 5.008833 4.32969 5.823671 2.501948.784919 5.146659.000424 6.732835-1.986571l.171825-.225708c.696657-.960055 1.724887-1.141423 2.70301-.587419.978122.554004 1.063437 1.956403.458712 2.824792-1.872346 2.58038-4.782988 4.113942-8.038173 4.129748-3.253334.015083-6.302997-1.448569-8.279908-4.007328-3.429785-4.437242-2.380961-10.743337 2.1016-14.036386 4.482571-3.293055 10.777373-2.32354 14.207183 2.113703zm.822371 4.383111c.556267.37777.873607 1.02059.832344 1.687436-.041402.669087-.437597 1.260574-1.039347 1.550478-.600724.289409-1.313956.233809-1.871141-.144586-.556267-.37777-.873607-1.02059-.832344-1.687436.041402-.669087.437597-1.260575 1.039347-1.550478.600724-.289409 1.313956-.233809 1.871141.144586z"/>
</svg>