<?xml version="1.0" encoding="UTF-8"?>
<svg width="20px" height="20px" viewBox="0 0 20 20" version="1.1" xmlns="http://www.w3.org/2000/svg" xmlns:xlink="http://www.w3.org/1999/xlink">
    <title>Artboard</title>
    <g id="Widgets" stroke="none" stroke-width="1" fill="none" fill-rule="evenodd">
        <g id="Artboard" transform="translate(-711.000000, -195.000000)" fill="#FFFFFF" fill-rule="nonzero">
            <g id="Container" transform="translate(711.000000, 195.000000)">
                <path d="M13.3564856,3 C13.8158039,3 14.239599,3.24486577 14.4689706,3.6434799 L17.8276088,9.46734151 C18.0574924,9.86684514 18.0574924,10.3593379 17.8274369,10.7591398 L14.4689475,16.5807344 C14.2391452,16.9800971 13.8144069,17.2247854 13.3564856,17.2222222 L6.64151309,17.2222222 C6.18219874,17.2222222 5.75840161,16.9773029 5.52901119,16.5786561 L2.17239622,10.7568327 C1.94251263,10.357329 1.94251263,9.86483631 2.17252805,9.46510382 L5.52887937,3.64373812 C5.7580823,3.2454174 6.18355947,3 6.64151309,3 L13.3564856,3 Z M6.45902296,8.38236862 C6.44942869,8.42834209 6.44444444,8.47574518 6.44444444,8.52389968 L6.44444444,8.52389968 L6.44444444,12.0130262 C6.44444444,12.2509807 6.56715301,12.4720604 6.76631316,12.5911551 L6.76631316,12.5911551 L9.67699288,14.3351286 C9.73256239,14.3683584 9.79171721,14.3923491 9.8524612,14.4071024 L9.8524612,14.4071024 L9.85299135,10.3355355 Z M13.5413971,8.38166647 L10.3734203,10.2052776 L10.3835236,10.2278564 L10.3870125,10.2516577 L10.3864444,14.2971111 L13.2337652,12.5910866 C13.4330884,12.4718944 13.5555455,12.2516878 13.5555455,12.0130262 L13.5555455,12.0130262 L13.5555455,8.52389968 C13.5558065,8.47554121 13.5509608,8.42789494 13.5413971,8.38166647 L13.5413971,8.38166647 Z M10.3240102,6.20077559 C10.1241094,6.08123784 9.87786332,6.08123784 9.67811172,6.20068628 L9.67811172,6.20068628 L6.76618405,7.94584806 C6.69354291,7.98928633 6.63111353,8.04614428 6.58110166,8.11242451 L6.58110166,8.11242451 L9.999995,10.0824183 L13.420076,8.11271557 C13.3700862,8.0463548 13.3075819,7.98937991 13.2348043,7.94586008 L13.2348043,7.94586008 Z" id="Combined-Shape"></path>
            </g>
        </g>
    </g>
</svg>